<svg width="25" height="25" viewBox="0 0 25 25" fill="none" xmlns="http://www.w3.org/2000/svg">
<path fill-rule="evenodd" clip-rule="evenodd" d="M4.31158 2.0784C4.61413 0.883858 5.69631 0 6.98489 0C7.95144 0 8.80188 0.4973 9.29426 1.25H10.1006C10.6015 0.735918 11.3013 0.416667 12.0758 0.416667C13.2113 0.416667 14.1865 1.10294 14.6092 2.08333H15.2843C15.7073 1.81926 16.2071 1.66667 16.7425 1.66667C17.878 1.66667 18.8531 2.35294 19.2759 3.33333H21.1115C21.1272 3.33333 21.1419 3.33756 21.1546 3.34493C21.2384 3.33726 21.3233 3.33333 21.4091 3.33333C22.9321 3.33333 24.1667 4.56794 24.1667 6.09092V14.3597L24.1667 14.375L24.1667 14.3903V14.5094C24.1667 14.5599 24.1653 14.6101 24.1626 14.6601C23.9967 20.3963 18.8387 25 12.5 25C6.05671 25 0.833374 20.243 0.833374 14.375C0.833374 11.5425 2.05041 8.9689 4.03423 7.06421C4.02928 9.82559 4.07592 12.6804 4.29093 12.6314C4.86663 12.5001 4.41683 3.94724 4.31158 2.0784Z" fill="white"/>
</svg>
